# xmcd
#
# Track frame offsets:
#	150
#	18247
#	34662
#	53027
#	70585
#	89887
#	104882
#	119780
#	135860
#	151430
#	168482
#
# Disc length: 2431 seconds
#
# Revision: 16
# Processed by: cddbd v1.5.2PL0 Copyright (c) Steve Scherf et al.
# Submitted via: Jack! The Knife 20 Magnifico
#
DISCID=96097d0b
DTITLE=Kiss - Unmasked
DYEAR=1980
DGENRE=Hard Rock
TTITLE0=Is That You?
TTITLE1=Shandi
TTITLE2=Talk To Me
TTITLE3=Naked City
TTITLE4=What Makes The World Go 'Round
TTITLE5=Tomorrow
TTITLE6=Two Sides Of The Coin
TTITLE7=She's So European
TTITLE8=Easy As It Seems
TTITLE9=Torpedo Girl
TTITLE10=You're All That I Want
EXTD=Vini Poncia
EXTT0=Gerald McMahon
EXTT1=Stanley, Poncia
EXTT2=Ace Frehley
EXTT3=Simmons, Kulick, Castro, Poncia
EXTT4=Stanley, Poncia
EXTT5=Stanley, Poncia
EXTT6=Ace Frehley
EXTT7=Simmons, Poncia
EXTT8=Stanley, Poncia
EXTT9=Frehley, Poncia
EXTT10=Simmons, Poncia
PLAYORDER=
